<?xml version="1.0" encoding="UTF-8"?>
<svg width="640" height="480" xmlns="http://www.w3.org/2000/svg" xmlns:svg="http://www.w3.org/2000/svg" xmlns:xlink="http://www.w3.org/1999/xlink"><script xmlns=""/><script xmlns="" async="false" type="text/javascript" src="moz-extension://88fda749-229f-459e-a754-9d43afc62147/in-page.js"/>
 <title>earth</title>
 <metadata id="metadata1906">image/svg+xml</metadata>
 <g>
  <title>Layer 1</title>
  <g display="none" id="layer2">
   <image xlink:href="C:\Important\kuvat\My_OS\globe.png" height="518" width="518" y="447.5" x="384.214" id="image2164"/>
  </g>
  <g display="inline" id="layer1" transform="rotate(12.707121849060059 323.80389404296875,226.00003051757815) " opacity="0.7">
   <g stroke-width="2" fill="#000000" id="g2230" stroke="null">
    <path d="m408.240758,36.522567c0,0 3.905388,4.563758 3.905388,4.563758l0.622277,4.812965l-4.770794,2.807563l-0.622277,3.008103l-7.052478,-3.008103l3.526239,5.214046l0.622277,4.010804l-3.941091,3.008103l-6.015349,-4.612425l7.467329,0l-0.829703,-3.409184l-8.711884,-3.409184l-9.541588,-1.203241l-3.733665,-2.005402l-8.711884,-1.403782l-8.91931,4.211345l-3.111362,0.802161l0.207426,4.010804l-4.355942,7.018908l-8.089607,8.623229l-4.563368,0.20054l0.414852,5.615126l3.526239,7.821068l4.355942,0.601621l4.563368,-3.409184l4.770769,0.601621l3.526239,5.815666l2.48911,5.414586l2.903961,1.804862l6.637626,-5.214046l-1.244555,-5.815666l3.941091,-5.414586l-5.807923,-4.010804l-1.866832,-6.216747l5.185645,-3.409184l-0.414852,-5.214046l5.807923,0.40108l0.622277,1.804862l-2.903961,5.013505l0,3.208643l2.903961,5.414586l3.318813,0.802161l0.207426,1.203241l3.111387,0l8.089607,-3.208643l4.148516,2.005402l-1.244555,1.403782l-7.259904,0l-1.866832,2.406483l2.903961,5.013505l-5.600497,-0.601621l0.622277,11.029712l-15.556936,4.411885l-3.733665,-1.403782l-4.148516,1.002701l-3.733665,-2.406483l-2.074233,-11.430792l-6.845052,5.815666l3.941091,8.623229l-12.030697,2.205942l-0.829703,4.612425l-9.126736,5.214046l-6.015349,6.617827l-4.770794,0.20054l-2.903961,2.406483l-9.541588,-0.40108l0.207426,4.010804l7.467329,2.807571l-0.207426,2.205942l3.526239,3.810264l-2.281684,13.035114l-23.646543,-3.208643l-6.4302,1.804862l0.622277,10.628631l-4.355942,9.826471l1.244555,10.628631l4.563368,-0.40108l5.807923,6.417287l1.866832,0.40108l1.451981,-1.203241l17.008917,-4.612425l6.845052,-5.013505l1.037129,-8.422689l2.696536,-3.609724l9.956439,-3.609724l-0.414852,-7.018908l4.355942,-2.607023l8.089607,2.406483l9.748989,-6.016206l5.185645,1.804862l10.786143,11.230252l4.355942,1.604322l9.126736,5.815666l3.526239,6.016206l-4.97822,3.208643l-9.749013,0.601621l-0.829703,2.607023l13.067827,4.612425l-0.414852,-6.417287l2.903961,0l3.941091,-7.219448l-2.903961,-3.208643l1.244555,-2.807563l2.903961,2.005402l2.48911,0.20054l-1.037129,-2.807563l-8.504459,-4.411885l-0.829703,-2.005402l-5.807923,-1.002701l-4.770794,-5.414586l-4.148516,-3.409184l-2.48911,-5.615126l3.111387,-1.203241l0.829703,2.005402l3.941091,0.20054l3.318813,3.609724l18.253472,10.428091l0.207426,5.815666l3.111387,5.214046l4.97822,3.208643l4.770794,9.22485l6.845052,0.802161l-0.207426,-5.414586l2.903961,-3.609724l-4.355942,-2.406483l-3.318813,-6.417287l2.074258,1.403782l1.659407,-0.20054l-0.414852,-4.411885l8.089607,0.802161l6.222775,13.035114l8.400746,4.913235l4.355942,0.902431l0.518565,-3.609724l4.148516,0.501351l12.341836,-2.807563l2.177971,6.116477l0.72599,17.848079l-1.244555,3.008103l-9.852726,0.802161l-6.015349,4.612425l-21.468572,-2.506753l-3.733665,-2.506753l-5.081933,-0.701891l-6.637626,4.311615l0.518565,7.319718l-4.252229,1.604322l-5.393071,-1.203241l-5.393071,-0.501351l-7.882181,-6.818367l-12.756688,-1.504052l-7.571042,-3.409184l-0.829703,-2.607023l3.837378,-5.514856l-3.111387,-4.512155l1.970545,-3.609724l-4.148516,-2.205942l-3.837378,-0.40108l-1.866832,1.504052l-10.993543,0l-4.044803,1.704592l-7.052478,-1.804862l-27.069069,9.12458l-3.318813,-1.804862l-9.126736,-0.701891l-1.037129,-2.406483l-3.422526,-0.20054l-0.829703,3.509454l-19.912879,18.65024l-0.414852,6.216747l-9.33417,8.823769l-7.882181,1.804862l-17.216343,22.059424l-5.807923,10.628631l2.696536,4.010804l-2.696536,20.655642l-4.97822,5.815666l2.903961,6.617827l-0.829703,5.815666l15.142085,16.043217l3.733665,10.027011l25.72081,18.4497l8.297033,-2.205942l21.157433,3.208643l18.875749,-5.615126l16.594065,-0.40108l4.97822,8.823769l14.519782,-1.604322l7.467329,5.815666l-3.941091,7.620528l-3.111387,8.422689l3.111387,5.615126l10.993568,7.419988l4.148516,10.227551l-1.866832,2.205942l2.903961,5.414586l-12.652975,12.634034l0.622277,5.013505l5.185645,6.617827l0.207426,5.013505c0,0 4.770794,2.607023 4.770794,2.607023c25.964767,-5.070467 50.464204,-16.505254 72.184185,-32.537257l-0.622277,-0.351338l0,-2.807563l24.891098,-19.05132l10.16389,-28.27617l27.380208,-42.313985l10.371291,-26.270768l-0.207426,-13.035114l-11.615846,13.837275l-4.148516,-0.20054l-1.037129,-6.016206l-4.97822,-5.214046l-4.770794,0l-2.074258,-7.219448l-6.015349,-7.419988l-1.451981,-10.027011l-6.015374,-7.018908l-11.200994,-19.853481l4.355942,-2.205942l11.408445,14.639436l4.97822,4.411885l2.696536,9.826471l11.823272,13.837275l2.281684,15.842677l2.281684,0l15.349511,-24.465906l6.4302,-18.048619l0.829703,-23.062125l-4.97822,-3.208643l-2.696536,-6.417287l-1.659407,0.601621l0,9.42539l-3.733665,3.810264l-1.659407,-7.219448l-7.052478,-4.812965l-4.148516,-8.422689l3.318813,-2.005402l6.845052,7.821068l5.185645,0.20054l1.659407,-3.208643l4.97822,3.609724l6.015349,-8.222149l4.063895,8.866276c-10.373772,-61.235348 -44.061376,-119.444078 -129.935689,-160.024939l0.000002,0.000002zm65.925708,85.782545l4.355942,0.802161l7.882206,7.219456l7.259904,9.22485l9.126736,13.235654l-3.318813,2.607023l-6.4302,-1.804862l-2.281684,-11.230252l-11.201019,-8.623229l-5.393071,-11.4308l-0.000001,-0.000001zm-41.692589,5.815674l6.015349,0.601621l6.4302,7.219448l5.185645,-5.013505l12.030697,4.812965l5.600497,4.211345l0.829703,5.615126l-10.993568,1.203241l-10.163865,-1.804862l-6.637626,6.617827l-7.259904,-0.601621l-4.355942,-4.211345l3.318813,-18.65024l0.000001,0z" stroke-width="2" fill-rule="evenodd" fill-opacity="0.607843" fill="#bfbfbf" id="svg_2" stroke="null"/>
    <path d="m309.199062,114.732633l18.333937,-2.977854l4.839667,-3.970464l-4.3999,-5.813982l-0.879485,-3.54507l-5.57393,-8.082725l0.146833,-7.090228l-5.573938,-2.410646l-4.9865,4.254092l2.053499,4.2541l-0.146866,5.530338l6.160538,0.283564l-1.320058,6.239368l-7.333739,4.96313l0.586625,2.268912l3.079842,1.134336l-6.013681,3.828714l1.027156,1.134416l0,-0.000001z" stroke-width="2" fill-rule="evenodd" fill-opacity="0.607843" fill="#bfbfbf" id="svg_3" stroke="null"/>
    <path d="m309.638829,95.022017l-3.226724,10.351565l-12.467146,1.559882l0.88034,-3.403328l4.3999,-1.134336l0,-1.41806l-3.520414,-1.276238l2.493258,-4.395922l3.227513,0l2.052736,-2.410654l6.013673,0.425386l0.146866,1.701704l-0.000002,0.000001z" stroke-width="2" fill-rule="evenodd" fill-opacity="0.607843" fill="#bfbfbf" id="svg_4" stroke="null"/>
    <path d="m291.011169,62.407199l10.560455,-2.268824l1.027131,-3.545078l-2.493209,-1.985268l-10.560488,0.141822l-1.760639,-0.992666l-4.839667,3.686884l3.960182,4.96313l4.106235,0z" stroke-width="2" fill-rule="evenodd" fill-opacity="0.607843" fill="#bfbfbf" id="svg_5" stroke="null"/>
    <path d="m363.027729,149.616291l-3.667272,1.276238l0.587438,4.111869l1.466077,1.985356l-2.493283,2.127339l0.880315,9.642768l4.9865,-1.560211l0.146857,-7.657412l-2.786948,-2.835647l1.46689,-1.276238l-0.586575,-5.814062l0.000001,0z" stroke-width="2" fill-rule="evenodd" fill-opacity="0.607843" fill="#bfbfbf" id="svg_6" stroke="null"/>
    <path d="m236.156142,65.810527l21.707518,-12.762299l12.320264,-0.850844l7.333756,-3.403248l18.187104,-3.119716l8.214029,-6.239344l14.080089,-9.642615l8.506948,-2.268832l-5.866824,-3.403328l-14.666665,-0.850852l-14.080903,0l-13.200554,5.955804l-32.268023,18.434459l-11.733664,11.060595l1.466924,7.09022l0.000001,0z" stroke-width="2" fill-rule="evenodd" fill-opacity="0.607843" fill="#bfbfbf" id="svg_7" stroke="null"/>
    <path d="m151.085836,110.053156c0,0 10.854178,-9.642623 10.854178,-9.642623l1.466915,4.2541l11.43994,-7.373783l-2.640108,-1.985268l8.800663,-8.224627l6.747147,0.283644l-10.560463,8.224627l4.399916,8.224555l7.626632,-11.060675l0,-3.40324l11.734493,-11.911527l4.106193,-10.209831l13.787188,-11.060667l17.30761,-9.075383l32.560875,-18.718047c0,0 -66.29578,11.769689 -117.631181,81.678746l0.000002,-0.000001z" stroke-width="2" fill-rule="evenodd" fill-opacity="0.607843" fill="#bfbfbf" id="svg_8" stroke="null"/>
    <path d="m171.327277,371.538905l-6.747147,-15.881991l4.986508,-5.672874l-6.159709,-12.194449l-12.613979,-15.881991l-10.853846,-9.642768l-12.61373,-23.256256l-6.746981,-26.659022l-5.573532,-18.434443c0,0 -1.76005,-16.165146 -1.76005,-16.165146c-3.813482,80.402195 58.082465,143.788938 58.082465,143.788938l0.000001,0.000002z" stroke-width="2" fill-rule="evenodd" fill-opacity="0.607843" fill="#bfbfbf" id="svg_9" stroke="null"/>
   </g>
  </g>
 </g>
<script xmlns=""/></svg>